{"title":"Selfless 2015 720p BluRay x264 DTS-RARBG","uid":12642705,"size":5995737776,"categoryP":"video","categoryS":"hd___movies","magnet":"?xt=urn:btih:80a2aa19bacb1fc3e3db53e4ce88e97c50f745cf&amp;dn=Selfless+2015+720p+BluRay+x264+DTS-RARBG&amp;tr=udp%3A%2F%2Ftracker.leechers-paradise.org%3A6969&amp;tr=udp%3A%2F%2Fzer0day.ch%3A1337&amp;tr=udp%3A%2F%2Fopen.demonii.com%3A1337&amp;tr=udp%3A%2F%2Ftracker.coppersurfer.tk%3A6969&amp;tr=udp%3A%2F%2Fexodus.desync.com%3A6969","seeders":1,"leechers":0,"uploader":"TheRival","files":5,"time":1446023111,"description":"Screens: \nhttp://extraimago.com/image/zDX \nhttp://extraimago.com/image/zDg \nhttp://extraimago.com/image/zD5 \nhttp://extraimago.com/image/zDD \nhttp://extraimago.com/image/zDH\r\n\r\nVideo\r\nID                                       : 1\r\nFormat                                   : AVC\r\nFormat/Info                              : Advanced Video Codec\r\nFormat profile                           :   \r\nFormat settings, CABAC                   : Yes\r\nFormat settings, ReFrames                : 4 frames\r\nCodec ID                                 : V_MPEG4/ISO/AVC\r\nDuration                                 : 1h 56mn\r\nBit rate                                 : 5 191 Kbps\r\nNominal bit rate                         : 5 500 Kbps\r\nWidth                                    : 1 280 pixels\r\nHeight                                   : 544 pixels\r\nDisplay aspect ratio                     : 2.35:1\r\nFrame rate mode                          : Constant\r\nFrame rate                               : 23.976 fps\r\nColor space                              : YUV\r\nChroma subsampling                       : 4:2:0\r\nBit depth                                : 8 bits\r\nScan type                                : Progressive\r\nBits/(Pixel*Frame)                       : 0.311\r\nStream size                              : 4.24 GiB (76%)\r\nTitle                                    : Self.less.2015.720p.BluRay.x264.DTS-RARBG\r\nWriting library                          : x264 core 146 r2555 0c21480\r\nEncoding settings                        : cabac=1 / ref=4 / deblock=1:-2:-2 / analyse=0x3:0x113 / me=umh / subme=7 / psy=1 / psy_rd=1.00:0.15 / mixed_ref=1 / me_range=16 / chroma_me=1 / trellis=1 / 8x8dct=1 / cqm=0 / deadzone=21,11 / fast_pskip=1 / chroma_qp_offset=-3 / threads=12 / lookahead_threads=3 / sliced_threads=0 / nr=0 / decimate=1 / interlaced=0 / bluray_compat=0 / constrained_intra=0 / bframes=3 / b_pyramid=2 / b_adapt=2 / b_bias=0 / direct=3 / weightb=1 / open_gop=0 / weightp=2 / keyint=250 / keyint_min=25 / scenecut=40 / intra_refresh=0 / rc_lookahead=50 / rc=abr / mbtree=1 / bitrate=5500 / ratetol=1.0 / qcomp=0.60 / qpmin=0 / qpmax=69 / qpstep=4 / vbv_maxrate=31250 / vbv_bufsize=31250 / nal_hrd=none / filler=0 / ip_ratio=1.40 / aq=1:1.00\r\nLanguage                                 : English\r\nDefault                                  : Yes\r\nForced                                   : No\r\n\r\nAudio\r\nID                                       : 2\r\nFormat                                   : DTS\r\nFormat/Info                              : Digital Theater Systems\r\nMode                                     : 16\r\nFormat settings, Endianness              : Big\r\nCodec ID                                 : A_DTS\r\nDuration                                 : 1h 56mn\r\nBit rate mode                            : Constant\r\nBit rate                                 : 1 509 Kbps\r\nChannel(s)                               : 6 channels\r\nChannel positions                        : Front: L C R, Side: L R, LFE\r\nSampling rate                            : 48.0 KHz\r\nBit depth                                : 24 bits\r\nCompression mode                         : Lossy\r\nStream size                              : 1.23 GiB (22%)\r\nTitle                                    : Self.less.2015.720p.BluRay.x264.DTS-RARBG\r\nLanguage                                 : English\r\nDefault                                  : Yes\r\nForced                                   : No\r\n\r\nText\r\nID                                       : 3\r\nFormat                                   : UTF-8\r\nCodec ID                                 : S_TEXT/UTF8\r\nCodec ID/Info                            : UTF-8 Plain Text\r\nLanguage                                 : English\r\nDefault                                  : Yes\r\nForced                                   : No\r\n\r\nMenu\r\n00:00:00.000                             : en:Chapter 01\r\n00:05:04.512                             : en:Chapter 02\r\n00:12:01.429                             : en:Chapter 03\r\n00:16:34.952                             : en:Chapter 04\r\n00:26:06.106                             : en:Chapter 05\r\n00:34:01.372                             : en:Chapter 06\r\n00:39:54.767                             : en:Chapter 07\r\n00:51:01.308                             : en:Chapter 08\r\n00:57:39.539                             : en:Chapter 09\r\n01:06:32.279                             : en:Chapter 10\r\n01:12:23.464                             : en:Chapter 11\r\n01:18:22.030                             : en:Chapter 12\r\n01:27:18.691                             : en:Chapter 13\r\n01:34:21.489                             : en:Chapter 14\r\n01:42:48.537                             : en:Chapter 15\r\n01:50:56.191                             : en:Chapter 16","torrent":{"xt":"urn:btih:80a2aa19bacb1fc3e3db53e4ce88e97c50f745cf","amp;dn":"Selfless+2015+720p+BluRay+x264+DTS-RARBG","amp;tr":["udp%3A%2F%2Ftracker.leechers-paradise.org%3A6969","udp%3A%2F%2Fzer0day.ch%3A1337","udp%3A%2F%2Fopen.demonii.com%3A1337","udp%3A%2F%2Ftracker.coppersurfer.tk%3A6969","udp%3A%2F%2Fexodus.desync.com%3A6969"],"infoHash":"80a2aa19bacb1fc3e3db53e4ce88e97c50f745cf","infoHashBuffer":{"type":"Buffer","data":[128,162,170,25,186,203,31,195,227,219,83,228,206,136,233,124,80,247,69,207]},"announce":[],"urlList":[]}}